<mxfile host="app.diagrams.net" modified="2024-01-29T04:01:28.268Z" agent="Mozilla/5.0 (Windows NT 10.0; Win64; x64) AppleWebKit/537.36 (KHTML, like Gecko) Chrome/120.0.0.0 Safari/537.36 Edg/120.0.0.0" version="23.0.2" etag="xtERjHnntEer7mr3c6ok" type="github">
  <diagram name="페이지-1" id="3c_zR6h8Y0xAuQywZSEh">
    <mxGraphModel>
      <root>
        <mxCell id="0" />
        <mxCell id="1" parent="0" />
      </root>
    </mxGraphModel>
  </diagram>
</mxfile>
